<svg width="0" height="0">
    <symbol xmlns="http://www.w3.org/2000/svg" viewBox="0 0 512 512" id="language">
        <path d="M363,176,246,464h47.24l24.49-58h90.54l24.49,58H480ZM336.31,362,363,279.85,389.69,362Z"></path>
        <path d="M272,320c-.25-.19-20.59-15.77-45.42-42.67,39.58-53.64,62-114.61,71.15-143.33H352V90H214V48H170V90H32v44H251.25c-9.52,26.95-27.05,69.5-53.79,108.36-32.68-43.44-47.14-75.88-47.33-76.22L143,152l-38,22,6.87,13.86c.89,1.56,17.19,37.9,54.71,86.57.92,1.21,1.85,2.39,2.78,3.57-49.72,56.86-89.15,79.09-89.66,79.47L64,368l23,36,19.3-11.47c2.2-1.67,41.33-24,92-80.78,24.52,26.28,43.22,40.83,44.3,41.67L255,362Z"></path>
    </symbol>

    <symbol xmlns="http://www.w3.org/2000/svg" viewBox="0 0 2048 2048" id="arrow">
        <path d="M1799 349l242 241-1017 1017L7 590l242-241 775 775 775-775z"></path>
    </symbol>

    <symbol fill="none" xmlns="http://www.w3.org/2000/svg" viewBox="0 0 14 8" id="arrow-rounded">
        <path d="M1 1L7 7L13 1" stroke="currentColor" stroke-width="2" stroke-linecap="round" stroke-linejoin="round"></path>
    </symbol>

    <symbol fill="none" xmlns="http://www.w3.org/2000/svg" viewBox="0 0 22 22" id="arrow-up-right">
        <path d="M1 21L21 1M21 1H7.66667M21 1V14.3333" stroke="currentColor" stroke-width="2" stroke-linecap="round" stroke-linejoin="round"></path>
    </symbol>

    <symbol fill="none" xmlns="http://www.w3.org/2000/svg" viewBox="0 0 12 22" id="thin-arrow">
        <path d="M11 21L1 11L11 1" stroke="currentColor" stroke-width="1.5" stroke-linecap="round" stroke-linejoin="round"></path>
    </symbol>

    <symbol fill="none" xmlns="http://www.w3.org/2000/svg" viewBox="0 0 50 30" id="wallet-connect">
        <path d="M10.1839 5.86168C18.2955 -1.95389 31.449 -1.95389 39.5606 5.86168L40.5372 6.80193C40.6335 6.89378 40.7101 7.00374 40.7623 7.12527C40.8146 7.24681 40.8415 7.37745 40.8415 7.50943C40.8415 7.64142 40.8146 7.77206 40.7623 7.89359C40.7101 8.01513 40.6335 8.1251 40.5372 8.21692L37.1975 11.4344C37.099 11.5284 36.9671 11.5809 36.83 11.5809C36.6929 11.5809 36.5611 11.5284 36.4626 11.4344L35.1192 10.1398C29.4606 4.68868 20.2851 4.68868 14.6252 10.1398L13.1864 11.5257C13.0879 11.6196 12.9562 11.6721 12.819 11.6721C12.6818 11.6721 12.5501 11.6196 12.4516 11.5257L9.11183 8.30818C9.01556 8.21637 8.93897 8.10639 8.88675 7.98481C8.83444 7.86331 8.80746 7.73266 8.80746 7.60068C8.80746 7.46869 8.83444 7.33806 8.88675 7.21652C8.93897 7.09499 9.01556 6.98503 9.11183 6.89318L10.1839 5.86168ZM46.4684 12.5148L49.4401 15.3793C49.5363 15.4711 49.6129 15.5811 49.6652 15.7026C49.7175 15.8241 49.7444 15.9548 49.7444 16.0867C49.7444 16.2187 49.7175 16.3494 49.6652 16.4709C49.6129 16.5924 49.5363 16.7024 49.4401 16.7942L36.0381 29.7065C35.8413 29.8947 35.5776 30 35.3033 30C35.0288 30 34.7652 29.8947 34.5683 29.7065L25.0569 20.542C25.0077 20.4947 24.9417 20.4682 24.8729 20.4682C24.804 20.4682 24.738 20.4947 24.6888 20.542L15.1774 29.7065C14.9806 29.8947 14.717 30 14.4425 30C14.1681 30 13.9045 29.8947 13.7077 29.7065L0.30434 16.7942C0.208056 16.7024 0.1315 16.5924 0.0792198 16.4709C0.0269394 16.3494 0 16.2187 0 16.0867C0 15.9548 0.0269394 15.8241 0.0792198 15.7026C0.1315 15.5811 0.208056 15.4711 0.30434 15.3793L3.27733 12.5148C3.4741 12.327 3.73743 12.222 4.01152 12.222C4.28561 12.222 4.54894 12.327 4.7457 12.5148L14.2571 21.6793C14.3063 21.7266 14.3724 21.7532 14.4412 21.7532C14.51 21.7532 14.576 21.7266 14.6252 21.6793L24.1367 12.5148C24.3335 12.3266 24.5971 12.2213 24.8715 12.2213C25.146 12.2213 25.4095 12.3266 25.6063 12.5148L35.1192 21.6793C35.1683 21.7266 35.2344 21.7532 35.3033 21.7532C35.372 21.7532 35.4381 21.7266 35.4873 21.6793L44.9987 12.5148C45.1956 12.3266 45.4591 12.2213 45.7336 12.2213C46.008 12.2213 46.2716 12.3266 46.4684 12.5148Z" fill="currentColor"></path>
    </symbol>

    <symbol fill="none" xmlns="http://www.w3.org/2000/svg" viewBox="0 0 37 34" id="metamask">
        <path d="M33.8032 0.793396L20.3605 10.8806L22.8464 4.9293L33.8032 0.793396Z" fill="#E2761B" stroke="#E2761B" stroke-linecap="round" stroke-linejoin="round"></path>
        <path d="M2.77032 0.793396L16.1049 10.9761L13.7406 4.9293L2.77032 0.793396ZM28.9666 24.1756L25.3864 29.7174L33.0466 31.8468L35.2488 24.2984L28.9666 24.1756ZM1.35175 24.2984L3.5404 31.8468L11.2007 29.7174L7.62048 24.1756L1.35175 24.2984Z" fill="#E4761B" stroke="#E4761B" stroke-linecap="round" stroke-linejoin="round"></path>
        <path d="M10.7683 14.8118L8.63367 18.0742L16.2399 18.4154L15.9697 10.1572L10.7683 14.8118ZM25.8051 14.8118L20.5361 10.0617L20.3605 18.4154L27.9532 18.0742L25.8051 14.8118ZM11.2006 29.7175L15.7671 27.4653L11.8221 24.3531L11.2006 29.7175ZM20.8064 27.4653L25.3863 29.7175L24.7513 24.3531L20.8064 27.4653Z" fill="#E4761B" stroke="#E4761B" stroke-linecap="round" stroke-linejoin="round"></path>
        <path d="M25.3863 29.7174L20.8064 27.4652L21.1711 30.4818L21.1306 31.7512L25.3863 29.7174ZM11.2006 29.7174L15.4563 31.7512L15.4293 30.4818L15.7671 27.4652L11.2006 29.7174Z" fill="#D7C1B3" stroke="#D7C1B3" stroke-linecap="round" stroke-linejoin="round"></path>
        <path d="M15.5239 22.3603L11.7141 21.2273L14.4025 19.9852L15.5239 22.3603ZM21.0496 22.3603L22.171 19.9852L24.873 21.2273L21.0496 22.3603Z" fill="#233447" stroke="#233447" stroke-linecap="round" stroke-linejoin="round"></path>
        <path d="M11.2006 29.7174L11.8491 24.1756L7.62042 24.2984L11.2006 29.7174ZM24.7378 24.1756L25.3864 29.7174L28.9666 24.2984L24.7378 24.1756ZM27.9532 18.0741L20.3605 18.4153L21.0631 22.3601L22.1844 19.985L24.8864 21.2272L27.9532 18.0741ZM11.714 21.2272L14.4161 19.985L15.5239 22.3601L16.2399 18.4153L8.63368 18.0741L11.714 21.2272Z" fill="#CD6116" stroke="#CD6116" stroke-linecap="round" stroke-linejoin="round"></path>
        <path d="M8.63367 18.0741L11.8221 24.353L11.714 21.2272L8.63367 18.0741ZM24.8864 21.2272L24.7513 24.353L27.9532 18.0741L24.8864 21.2272ZM16.2399 18.4153L15.5239 22.3601L16.4155 27.0147L16.6182 20.886L16.2399 18.4153ZM20.3605 18.4153L19.9957 20.8723L20.1579 27.0147L21.0631 22.3601L20.3605 18.4153Z" fill="#E4751F" stroke="#E4751F" stroke-linecap="round" stroke-linejoin="round"></path>
        <path d="M21.0631 22.3605L20.1579 27.0151L20.8064 27.4656L24.7514 24.3534L24.8864 21.2276L21.0631 22.3605ZM11.7141 21.2276L11.8221 24.3534L15.7671 27.4656L16.4156 27.0151L15.5239 22.3605L11.7141 21.2276Z" fill="#F6851B" stroke="#F6851B" stroke-linecap="round" stroke-linejoin="round"></path>
        <path d="M21.1306 31.7514L21.1711 30.4819L20.8334 30.1816H15.7401L15.4293 30.4819L15.4563 31.7514L11.2006 29.7176L12.6867 30.9461L15.6995 33.0618H20.8739L23.9002 30.9461L25.3863 29.7176L21.1306 31.7514Z" fill="#C0AD9E" stroke="#C0AD9E" stroke-linecap="round" stroke-linejoin="round"></path>
        <path d="M20.8064 27.4654L20.1579 27.015H16.4156L15.7671 27.4654L15.4293 30.482L15.7401 30.1817H20.8334L21.1712 30.482L20.8064 27.4654Z" fill="#161616" stroke="#161616" stroke-linecap="round" stroke-linejoin="round"></path>
        <path d="M34.3706 11.5358L35.519 5.96669L33.8032 0.793396L20.8064 10.5394L25.8051 14.8117L32.871 16.9002L34.4382 15.0575L33.7626 14.5661L34.8435 13.5696L34.0059 12.9145L35.0866 12.0818L34.3706 11.5358ZM1.06799 5.96669L2.21636 11.5358L1.48681 12.0818L2.56763 12.9145L1.74351 13.5696L2.82432 14.5661L2.14881 15.0575L3.70248 16.9002L10.7683 14.8117L15.7671 10.5394L2.77028 0.793396L1.06799 5.96669Z" fill="#763D16" stroke="#763D16" stroke-linecap="round" stroke-linejoin="round"></path>
        <path d="M32.871 16.9004L25.8052 14.812L27.9533 18.0743L24.7514 24.3532L28.9666 24.2986H35.2488L32.871 16.9004ZM10.7684 14.812L3.70252 16.9004L1.35175 24.2986H7.62048L11.8221 24.3532L8.63371 18.0743L10.7684 14.812ZM20.3606 18.4155L20.8064 10.5396L22.86 4.9295H13.7406L15.7671 10.5396L16.24 18.4155L16.4021 20.8998L16.4156 27.015H20.1579L20.1849 20.8998L20.3606 18.4155Z" fill="#F6851B" stroke="#F6851B" stroke-linecap="round" stroke-linejoin="round"></path>
    </symbol>

    <symbol fill="none" xmlns="http://www.w3.org/2000/svg" viewBox="0 0 22 22" id="close">
        <path d="M21 1L1 21M1 1L21 21" stroke="currentColor" stroke-width="2" stroke-linecap="round" stroke-linejoin="round"></path>
    </symbol>

    <symbol fill="none" xmlns="http://www.w3.org/2000/svg" viewBox="0 0 20 14" id="burger">
        <path d="M1 7H13M1 1H19M1 13H19" stroke="currentColor" stroke-width="2" stroke-linecap="round" stroke-linejoin="round"></path>
    </symbol>

    <symbol fill="none" xmlns="http://www.w3.org/2000/svg" viewBox="0 0 30 30" id="explore">
        <path d="M8.33329 11.6667L1.66663 15L14.5229 21.4282C14.6978 21.5156 14.7853 21.5593 14.877 21.5765C14.9583 21.5918 15.0416 21.5918 15.1229 21.5765C15.2146 21.5593 15.3021 21.5156 15.477 21.4282L28.3333 15L21.6666 11.6667M8.33329 18.3333L1.66663 21.6667L14.5229 28.0948C14.6978 28.1823 14.7853 28.226 14.877 28.2432C14.9583 28.2585 15.0416 28.2585 15.1229 28.2432C15.2146 28.226 15.3021 28.1823 15.477 28.0948L28.3333 21.6667L21.6666 18.3333M1.66663 8.33334L14.5229 1.90519C14.6978 1.81773 14.7853 1.774 14.877 1.75679C14.9583 1.74155 15.0416 1.74155 15.1229 1.75679C15.2146 1.774 15.3021 1.81773 15.477 1.90519L28.3333 8.33334L15.477 14.7615C15.3021 14.8489 15.2146 14.8927 15.1229 14.9099C15.0416 14.9251 14.9583 14.9251 14.877 14.9099C14.7853 14.8927 14.6978 14.8489 14.5229 14.7615L1.66663 8.33334Z" stroke="currentColor" stroke-width="2" stroke-linecap="round" stroke-linejoin="round"></path>
    </symbol>

    <symbol fill="none" xmlns="http://www.w3.org/2000/svg" viewBox="0 0 30 24" id="howItWorks">
        <path d="M15 22.6666H5.93329C4.43982 22.6666 3.69308 22.6666 3.12265 22.3759C2.62089 22.1203 2.21294 21.7123 1.95728 21.2106C1.66663 20.6401 1.66663 19.8934 1.66663 18.3999V5.59992C1.66663 4.10644 1.66663 3.35971 1.95728 2.78928C2.21294 2.28751 2.62089 1.87956 3.12265 1.6239C3.69308 1.33325 4.43982 1.33325 5.93329 1.33325H6.46663C9.45357 1.33325 10.947 1.33325 12.0879 1.91455C13.0914 2.42588 13.9073 3.24177 14.4187 4.2453C15 5.38616 15 6.87964 15 9.86658M15 22.6666V9.86658M15 22.6666H24.0666C25.5601 22.6666 26.3068 22.6666 26.8773 22.3759C27.379 22.1203 27.787 21.7123 28.0426 21.2106C28.3333 20.6401 28.3333 19.8934 28.3333 18.3999V5.59992C28.3333 4.10644 28.3333 3.35971 28.0426 2.78928C27.787 2.28751 27.379 1.87956 26.8773 1.6239C26.3068 1.33325 25.5601 1.33325 24.0666 1.33325H23.5333C20.5463 1.33325 19.0529 1.33325 17.912 1.91455C16.9085 2.42588 16.0926 3.24177 15.5813 4.2453C15 5.38616 15 6.87964 15 9.86658" stroke="currentColor" stroke-width="2" stroke-linecap="round" stroke-linejoin="round"></path>
    </symbol>

    <symbol fill="none" xmlns="http://www.w3.org/2000/svg" viewBox="0 0 24 30" id="blog">
        <path d="M14.6667 13.6667H6.66671M9.33337 19.0001H6.66671M17.3334 8.33341H6.66671M22.6667 8.06675V21.9334C22.6667 24.1736 22.6667 25.2937 22.2307 26.1494C21.8472 26.902 21.2353 27.5139 20.4827 27.8974C19.627 28.3334 18.5069 28.3334 16.2667 28.3334H7.73337C5.49316 28.3334 4.37306 28.3334 3.51741 27.8974C2.76476 27.5139 2.15284 26.902 1.76935 26.1494C1.33337 25.2937 1.33337 24.1736 1.33337 21.9334V8.06675C1.33337 5.82654 1.33337 4.70643 1.76935 3.85079C2.15284 3.09814 2.76476 2.48622 3.51741 2.10272C4.37306 1.66675 5.49316 1.66675 7.73337 1.66675H16.2667C18.5069 1.66675 19.627 1.66675 20.4827 2.10272C21.2353 2.48622 21.8472 3.09814 22.2307 3.85079C22.6667 4.70643 22.6667 5.82654 22.6667 8.06675Z" stroke="currentColor" stroke-width="2" stroke-linecap="round" stroke-linejoin="round"></path>
    </symbol>

    <symbol fill="none" xmlns="http://www.w3.org/2000/svg" viewBox="0 0 22 21" id="closed-eye">
        <path d="M9.74294 3.59232C10.1494 3.53223 10.5686 3.5 11.0004 3.5C16.1054 3.5 19.4553 8.00484 20.5807 9.78682C20.7169 10.0025 20.785 10.1103 20.8231 10.2767C20.8518 10.4016 20.8517 10.5987 20.8231 10.7236C20.7849 10.8899 20.7164 10.9985 20.5792 11.2156C20.2793 11.6901 19.8222 12.3571 19.2165 13.0805M5.72432 5.21504C3.56225 6.6817 2.09445 8.71938 1.42111 9.78528C1.28428 10.0019 1.21587 10.1102 1.17774 10.2765C1.1491 10.4014 1.14909 10.5984 1.17771 10.7234C1.21583 10.8897 1.28393 10.9975 1.42013 11.2132C2.54554 12.9952 5.89541 17.5 11.0004 17.5C13.0588 17.5 14.8319 16.7676 16.2888 15.7766M2.00042 1.5L20.0004 19.5M8.8791 8.37868C8.3362 8.92157 8.00042 9.67157 8.00042 10.5C8.00042 12.1569 9.34356 13.5 11.0004 13.5C11.8288 13.5 12.5788 13.1642 13.1217 12.6213" stroke="currentColor" stroke-width="2" stroke-linecap="round" stroke-linejoin="round"></path>
    </symbol>

    <symbol fill="none" xmlns="http://www.w3.org/2000/svg" viewBox="0 0 22 17" id="open-eye">
        <path d="M1.42012 9.21318C1.28394 8.99754 1.21584 8.88972 1.17772 8.72342C1.14909 8.5985 1.14909 8.4015 1.17772 8.27658C1.21584 8.11028 1.28394 8.00246 1.42012 7.78682C2.54553 6.00484 5.8954 1.5 11.0004 1.5C16.1054 1.5 19.4553 6.00484 20.5807 7.78682C20.7169 8.00246 20.785 8.11028 20.8231 8.27658C20.8517 8.4015 20.8517 8.5985 20.8231 8.72342C20.785 8.88972 20.7169 8.99754 20.5807 9.21318C19.4553 10.9952 16.1054 15.5 11.0004 15.5C5.8954 15.5 2.54553 10.9952 1.42012 9.21318Z" stroke="currentColor" stroke-width="2" stroke-linecap="round" stroke-linejoin="round"></path>
        <path d="M11.0004 11.5C12.6573 11.5 14.0004 10.1569 14.0004 8.5C14.0004 6.84315 12.6573 5.5 11.0004 5.5C9.34355 5.5 8.0004 6.84315 8.0004 8.5C8.0004 10.1569 9.34355 11.5 11.0004 11.5Z" stroke="#1F2937" stroke-width="2" stroke-linecap="round" stroke-linejoin="round"></path>
    </symbol>

    <symbol fill="none" xmlns="http://www.w3.org/2000/svg" viewBox="0 0 16 8" id="triangle">
        <path d="M0 8L8 -6.99382e-07L16 8L0 8Z" fill="currentColor"></path>
    </symbol>

    <symbol fill="none" xmlns="http://www.w3.org/2000/svg" viewBox="0 0 30 28" id="total-spending">
        <path d="M15 19.6667C15 23.3486 17.9847 26.3333 21.6666 26.3333C25.3485 26.3333 28.3333 23.3486 28.3333 19.6667C28.3333 15.9848 25.3485 13 21.6666 13C17.9847 13 15 15.9848 15 19.6667ZM15 19.6667C15 18.1656 15.4961 16.7803 16.3333 15.666V3.66667M15 19.6667C15 20.7671 15.2666 21.8053 15.7388 22.7202C14.6155 23.669 12.0211 24.3333 8.99996 24.3333C4.94987 24.3333 1.66663 23.1394 1.66663 21.6667V3.66667M16.3333 3.66667C16.3333 5.13943 13.05 6.33333 8.99996 6.33333C4.94987 6.33333 1.66663 5.13943 1.66663 3.66667M16.3333 3.66667C16.3333 2.19391 13.05 1 8.99996 1C4.94987 1 1.66663 2.19391 1.66663 3.66667M1.66663 15.6667C1.66663 17.1394 4.94987 18.3333 8.99996 18.3333C11.9186 18.3333 14.4391 17.7133 15.6195 16.8157M16.3333 9.66667C16.3333 11.1394 13.05 12.3333 8.99996 12.3333C4.94987 12.3333 1.66663 11.1394 1.66663 9.66667" stroke="currentColor" stroke-width="2" stroke-linecap="round" stroke-linejoin="round"></path>
    </symbol>

    <symbol fill="none" xmlns="http://www.w3.org/2000/svg" viewBox="0 0 30 26" id="total-nfts">
        <path d="M4.69621 24.6372L13.4916 15.8418C14.0196 15.3138 14.2836 15.0498 14.5881 14.9509C14.8559 14.8639 15.1443 14.8639 15.4121 14.9509C15.7165 15.0498 15.9806 15.3138 16.5086 15.8418L25.2453 24.5786M17.6667 17L21.4916 13.1752C22.0196 12.6471 22.2836 12.3831 22.5881 12.2842C22.8559 12.1972 23.1443 12.1972 23.4121 12.2842C23.7165 12.3831 23.9806 12.6471 24.5086 13.1752L28.3334 17M12.3334 9C12.3334 10.4728 11.1395 11.6667 9.66675 11.6667C8.19399 11.6667 7.00008 10.4728 7.00008 9C7.00008 7.52724 8.19399 6.33333 9.66675 6.33333C11.1395 6.33333 12.3334 7.52724 12.3334 9ZM8.06675 25H21.9334C24.1736 25 25.2937 25 26.1494 24.564C26.902 24.1805 27.5139 23.5686 27.8974 22.816C28.3334 21.9603 28.3334 20.8402 28.3334 18.6V7.4C28.3334 5.15979 28.3334 4.03969 27.8974 3.18404C27.5139 2.43139 26.902 1.81947 26.1494 1.43597C25.2937 1 24.1736 1 21.9334 1H8.06675C5.82654 1 4.70643 1 3.85079 1.43597C3.09814 1.81947 2.48622 2.43139 2.10272 3.18404C1.66675 4.03969 1.66675 5.15979 1.66675 7.4V18.6C1.66675 20.8402 1.66675 21.9603 2.10272 22.816C2.48622 23.5686 3.09814 24.1805 3.85079 24.564C4.70643 25 5.82654 25 8.06675 25Z" stroke="currentColor" stroke-width="2" stroke-linecap="round" stroke-linejoin="round"></path>
    </symbol>

    <symbol fill="none" xmlns="http://www.w3.org/2000/svg" viewBox="0 0 30 30" id="Average-APR">
        <path d="M2.11926 18.4526C0.931355 14.0043 2.08227 9.06147 5.57199 5.57175C10.779 0.364756 19.2212 0.364756 24.4282 5.57175C29.6352 10.7787 29.6352 19.2209 24.4282 24.4279C20.9384 27.9177 15.9956 29.0686 11.5473 27.8807M19.0003 19V11M19.0003 11H11.0003M19.0003 11L5.66668 24.3332" stroke="currentColor" stroke-width="2" stroke-linecap="round" stroke-linejoin="round"></path>
    </symbol>

    <symbol fill="none" xmlns="http://www.w3.org/2000/svg" viewBox="0 0 19 16" id="check">
        <path d="M0 0L18.5 16V3L17 0.5L15 0H0Z" fill="#1F2937"></path>
        <path d="M15.6668 3L12.0002 6.66667L10.3335 5" stroke="white" stroke-linecap="round" stroke-linejoin="round"></path>
    </symbol>

    <symbol fill="none" xmlns="http://www.w3.org/2000/svg" viewBox="0 0 23 28" id="repeat">
        <path d="M11.4997 23.9167C16.9765 23.9167 21.4163 19.4769 21.4163 14C21.4163 10.7036 19.8079 7.78278 17.333 5.97966M12.6663 26.1334L10.333 23.8L12.6663 21.4667M11.4997 4.08337C6.02285 4.08337 1.58301 8.52321 1.58301 14C1.58301 17.2965 3.19145 20.2173 5.66634 22.0204M10.333 6.53337L12.6663 4.20003L10.333 1.8667" stroke="currentColor" stroke-width="2" stroke-linecap="round" stroke-linejoin="round"></path>
    </symbol>

    <symbol fill="none" xmlns="http://www.w3.org/2000/svg" viewBox="0 0 18 13" id="check-mark">
        <path d="M17 1L6 12L1 7" stroke="currentColor" stroke-width="2" stroke-linecap="round" stroke-linejoin="round"></path>
    </symbol>

    <symbol fill="none" xmlns="http://www.w3.org/2000/svg" viewBox="0 0 32 32" id="zoom">
        <path d="M31 31L23.75 23.75M14.3333 9.33333V19.3333M9.33333 14.3333H19.3333M27.6667 14.3333C27.6667 21.6971 21.6971 27.6667 14.3333 27.6667C6.96954 27.6667 1 21.6971 1 14.3333C1 6.96954 6.96954 1 14.3333 1C21.6971 1 27.6667 6.96954 27.6667 14.3333Z" stroke="currentColor" stroke-width="2" stroke-linecap="round" stroke-linejoin="round"></path>
    </symbol>

    <symbol fill="none" xmlns="http://www.w3.org/2000/svg" viewBox="0 0 20 2" id="minus">
        <path d="M1.83301 1H18.1663" stroke="currentColor" stroke-width="2" stroke-linecap="round" stroke-linejoin="round"></path>
    </symbol>

    <symbol fill="none" xmlns="http://www.w3.org/2000/svg" viewBox="0 0 20 20" id="plus">
        <path d="M9.99967 1.83325V18.1666M1.83301 9.99992H18.1663" stroke="currentColor" stroke-width="2" stroke-linecap="round" stroke-linejoin="round"></path>
    </symbol>

    <symbol fill="none" xmlns="http://www.w3.org/2000/svg" viewBox="0 0 26 30" id="share">
        <path d="M8.45333 17.0134L17.56 22.3201M17.5467 7.68008L8.45333 12.9867M25 5.66675C25 7.87589 23.2091 9.66675 21 9.66675C18.7909 9.66675 17 7.87589 17 5.66675C17 3.45761 18.7909 1.66675 21 1.66675C23.2091 1.66675 25 3.45761 25 5.66675ZM9 15.0001C9 17.2092 7.20914 19.0001 5 19.0001C2.79086 19.0001 1 17.2092 1 15.0001C1 12.7909 2.79086 11.0001 5 11.0001C7.20914 11.0001 9 12.7909 9 15.0001ZM25 24.3334C25 26.5426 23.2091 28.3334 21 28.3334C18.7909 28.3334 17 26.5426 17 24.3334C17 22.1243 18.7909 20.3334 21 20.3334C23.2091 20.3334 25 22.1243 25 24.3334Z" stroke="currentColor" stroke-width="2" stroke-linecap="round" stroke-linejoin="round"></path>
    </symbol>

    <symbol fill="none" xmlns="http://www.w3.org/2000/svg" viewBox="0 0 24 16" id="filter">
        <path d="M5 8H19M1.5 1H22.5M8.5 15H15.5" stroke="currentColor" stroke-width="2" stroke-linecap="round" stroke-linejoin="round"></path>
    </symbol>

    <symbol fill="none" xmlns="http://www.w3.org/2000/svg" viewBox="0 0 20 20" id="disconnect">
        <path d="M14 15L19 10M19 10L14 5M19 10H7M7 1H5.8C4.11984 1 3.27976 1 2.63803 1.32698C2.07354 1.6146 1.6146 2.07354 1.32698 2.63803C1 3.27976 1 4.11984 1 5.8V14.2C1 15.8802 1 16.7202 1.32698 17.362C1.6146 17.9265 2.07354 18.3854 2.63803 18.673C3.27976 19 4.11984 19 5.8 19H7" stroke="currentColor" stroke-width="2" stroke-linecap="round" stroke-linejoin="round"></path>
    </symbol>

    <symbol fill="none" xmlns="http://www.w3.org/2000/svg" viewBox="0 0 20 20" id="account">
        <path d="M13 1H14.2C15.8802 1 16.7202 1 17.362 1.32698C17.9265 1.6146 18.3854 2.07354 18.673 2.63803C19 3.27976 19 4.11985 19 5.8V14.2C19 15.8802 19 16.7202 18.673 17.362C18.3854 17.9265 17.9265 18.3854 17.362 18.673C16.7202 19 15.8802 19 14.2 19H13M8 5L13 10M13 10L8 15M13 10L1 10" stroke="currentColor" stroke-width="2" stroke-linecap="round" stroke-linejoin="round"></path>
    </symbol>

    <symbol xmlns="http://www.w3.org/2000/svg" viewBox="0 0 512 512" id="arrow-sort">
        <g transform="matrix(-1.8369701987210282e-16,0.9999999999999987,-0.9999999999999987,-1.8369701987210282e-16,512.000160217285,-0.00014495849569584607)">
            <path d="m506.134 241.843-.018-.019-104.504-104c-7.829-7.791-20.492-7.762-28.285.068-7.792 7.829-7.762 20.492.067 28.284L443.558 236H20c-11.046 0-20 8.954-20 20s8.954 20 20 20h423.557l-70.162 69.824c-7.829 7.792-7.859 20.455-.067 28.284 7.793 7.831 20.457 7.858 28.285.068l104.504-104 .018-.019c7.833-7.818 7.808-20.522-.001-28.314z" fill="currentColor"></path>
        </g>
    </symbol>

    <symbol fill="none" xmlns="http://www.w3.org/2000/svg" viewBox="0 0 17 17" id="copy">
        <path d="M14 6H10C8.89543 6 8 6.89543 8 8V14C8 15.1046 8.89543 16 10 16H14C15.1046 16 16 15.1046 16 14V8C16 6.89543 15.1046 6 14 6Z" stroke="currentColor" stroke-width="2" stroke-miterlimit="10" stroke-linejoin="round"></path>
        <path d="M5 14H3C1.89543 14 1 13.1046 1 12V3C1 1.89543 1.89543 1 3 1H10C11.1046 1 12 1.89543 12 3V3" stroke="currentColor" stroke-width="2" stroke-miterlimit="10" stroke-linejoin="round"></path>
    </symbol>

    <symbol fill="none" xmlns="http://www.w3.org/2000/svg" viewBox="0 0 34 31" id="twitter">
        <path d="M33.6544 4.77202C33.5599 4.54359 33.3997 4.34834 33.1942 4.21095C32.9886 4.07355 32.747 4.00019 32.4998 4.00014H27.7451C27.0803 2.86917 26.1342 1.92945 24.9988 1.27234C23.8633 0.615225 22.5772 0.263081 21.2654 0.250142C20.2881 0.237323 19.318 0.420101 18.4124 0.787722C17.5068 1.15534 16.6838 1.70038 15.9919 2.39077C15.2799 3.08955 14.7147 3.92365 14.3296 4.84403C13.9446 5.7644 13.7474 6.75247 13.7498 7.75014V8.7017C7.45913 7.04233 2.31382 1.92514 2.25913 1.87045C2.09143 1.70127 1.87888 1.58353 1.6465 1.53109C1.41413 1.47866 1.17161 1.49371 0.947502 1.57449C0.723398 1.65526 0.527041 1.7984 0.381555 1.98703C0.23607 2.17566 0.147515 2.40193 0.126318 2.6392C-0.54712 10.1064 1.62163 15.1033 3.56382 17.9798C4.51081 19.4019 5.66285 20.676 6.98257 21.7611C4.60288 24.5001 0.856005 25.9392 0.81538 25.9548C0.638995 26.0209 0.47982 26.126 0.349749 26.2622C0.219677 26.3984 0.122071 26.5623 0.0642251 26.7415C0.00637899 26.9208 -0.0102118 27.1108 0.015692 27.2973C0.0415958 27.4839 0.109324 27.6622 0.213817 27.8189C0.331005 27.9939 0.799755 28.608 1.94507 29.1814C3.36069 29.8908 5.231 30.2501 7.49975 30.2501C18.5419 30.2501 27.7685 21.747 28.7107 10.8064L33.3841 6.13452C33.5589 5.95961 33.6778 5.7368 33.726 5.49427C33.7741 5.25174 33.7492 5.0004 33.6544 4.77202ZM26.6232 9.36733C26.4089 9.58216 26.28 9.86762 26.2607 10.1705C25.6248 20.0283 17.3873 27.7501 7.49975 27.7501C5.84975 27.7501 4.68725 27.5314 3.87163 27.2689C5.67007 26.2923 8.17788 24.6126 9.79038 22.1939C9.88502 22.0517 9.9495 21.8916 9.97985 21.7234C10.0102 21.5553 10.0058 21.3828 9.9668 21.2164C9.92786 21.0501 9.85522 20.8935 9.7534 20.7563C9.65157 20.6192 9.5227 20.5043 9.37475 20.4189C9.30132 20.3767 2.51382 16.3033 2.49975 5.41889C4.99975 7.45014 9.57007 10.6017 14.7919 11.4798C14.9709 11.51 15.1543 11.5008 15.3294 11.453C15.5044 11.4051 15.667 11.3197 15.8057 11.2027C15.9444 11.0857 16.056 10.9399 16.1327 10.7754C16.2094 10.6109 16.2493 10.4316 16.2498 10.2501V7.75014C16.2484 7.08334 16.3803 6.423 16.6379 5.80797C16.8955 5.19294 17.2736 4.63565 17.7498 4.16889C18.2062 3.71154 18.7498 3.35035 19.3483 3.10667C19.9467 2.86298 20.588 2.74175 21.2341 2.75014C23.2123 2.77514 25.0607 3.98139 25.8341 5.7517C25.9316 5.97428 26.0919 6.16361 26.2953 6.29653C26.4987 6.42945 26.7365 6.50021 26.9794 6.50014H29.4794L26.6232 9.36733Z" fill="currentColor"></path>
    </symbol>

    <symbol fill="none" xmlns="http://www.w3.org/2000/svg" viewBox="0 0 20 34" id="facebook">
        <path fill-rule="evenodd" clip-rule="evenodd" d="M7.48033 3.31333C9.12106 1.67233 11.3465 0.750275 13.667 0.75H18.167C18.4985 0.75 18.8165 0.881696 19.0509 1.11612C19.2853 1.35054 19.417 1.66848 19.417 2V8C19.417 8.33152 19.2853 8.64946 19.0509 8.88388C18.8165 9.1183 18.4985 9.25 18.167 9.25H13.667C13.6342 9.25 13.6017 9.25647 13.5713 9.26903C13.541 9.28159 13.5134 9.30001 13.4902 9.32322C13.467 9.34644 13.4486 9.374 13.436 9.40433C13.4235 9.43466 13.417 9.46717 13.417 9.5V12.75H18.167C18.357 12.7499 18.5446 12.7931 18.7154 12.8764C18.8862 12.9597 19.0358 13.0808 19.1528 13.2305C19.2698 13.3803 19.3511 13.5547 19.3905 13.7406C19.4299 13.9265 19.4264 14.119 19.3803 14.3033L17.8803 20.3033C17.8127 20.5739 17.6565 20.814 17.4366 20.9855C17.2168 21.1571 16.9459 21.2502 16.667 21.25H13.417V32C13.417 32.3315 13.2853 32.6495 13.0509 32.8839C12.8165 33.1183 12.4985 33.25 12.167 33.25H6.16699C5.83547 33.25 5.51753 33.1183 5.28311 32.8839C5.04869 32.6495 4.91699 32.3315 4.91699 32V21.25H1.66699C1.33547 21.25 1.01753 21.1183 0.783109 20.8839C0.548688 20.6495 0.416992 20.3315 0.416992 20V14C0.416992 13.8358 0.449324 13.6733 0.512143 13.5216C0.574961 13.37 0.667035 13.2322 0.783109 13.1161C0.899182 13 1.03698 12.908 1.18864 12.8452C1.34029 12.7823 1.50284 12.75 1.66699 12.75H4.91699V9.5C4.91727 7.17946 5.83932 4.95407 7.48033 3.31333ZM13.667 3.25C12.0094 3.25 10.4197 3.90848 9.24757 5.08058C8.07547 6.25269 7.41699 7.8424 7.41699 9.5V14C7.41699 14.3315 7.2853 14.6495 7.05088 14.8839C6.81646 15.1183 6.49851 15.25 6.16699 15.25H2.91699V18.75H6.16699C6.49851 18.75 6.81646 18.8817 7.05088 19.1161C7.2853 19.3505 7.41699 19.6685 7.41699 20V30.75H10.917V20C10.917 19.6685 11.0487 19.3505 11.2831 19.1161C11.5175 18.8817 11.8355 18.75 12.167 18.75H15.6903L16.5653 15.25H12.167C11.8355 15.25 11.5175 15.1183 11.2831 14.8839C11.0487 14.6495 10.917 14.3315 10.917 14V9.5C10.917 8.77065 11.2067 8.07118 11.7224 7.55546C12.2382 7.03973 12.9376 6.75 13.667 6.75H16.917V3.25H13.667Z" fill="currentColor"></path>
    </symbol>

    <symbol fill="none" xmlns="http://www.w3.org/2000/svg" viewBox="0 0 36 32" id="telegram">
        <path d="M35.0125 1.09239C34.8189 0.925152 34.5832 0.813928 34.331 0.7707C34.0788 0.727473 33.8196 0.75388 33.5813 0.847076L1.91565 13.2393C1.46688 13.4138 1.08694 13.7293 0.833035 14.1385C0.57913 14.5476 0.465002 15.0281 0.507833 15.5077C0.550664 15.9873 0.748136 16.44 1.07052 16.7977C1.3929 17.1553 1.82275 17.3986 2.29534 17.4908L10.5 19.1018V28.2502C10.4984 28.7485 10.6465 29.2358 10.9251 29.649C11.2037 30.0621 11.6 30.3821 12.0625 30.5674C12.5244 30.756 13.0323 30.8013 13.5203 30.6973C14.0082 30.5934 14.4536 30.345 14.7985 29.9846L18.7547 25.8815L25.0313 31.3752C25.4841 31.7769 26.0682 31.9992 26.6735 32.0002C26.9387 32 27.2023 31.9583 27.4547 31.8768C27.8671 31.7459 28.2381 31.5093 28.5306 31.1904C28.8231 30.8716 29.027 30.4817 29.1219 30.0596L35.4641 2.46895C35.5208 2.22012 35.5088 1.96055 35.4292 1.71805C35.3497 1.47555 35.2056 1.25927 35.0125 1.09239ZM25.4594 6.71739L11.461 16.7424L3.71097 15.2221L25.4594 6.71739ZM13 28.2502V20.8315L16.8735 24.2283L13 28.2502ZM26.6766 29.5002L13.7578 18.1721L32.3516 4.84551L26.6766 29.5002Z" fill="currentColor"></path>
    </symbol>

    <symbol fill="none" xmlns="http://www.w3.org/2000/svg" viewBox="0 0 40 40" id="email">
        <path d="M33.125 7.5H6.875C5.14911 7.5 3.75 8.89911 3.75 10.625V29.375C3.75 31.1009 5.14911 32.5 6.875 32.5H33.125C34.8509 32.5 36.25 31.1009 36.25 29.375V10.625C36.25 8.89911 34.8509 7.5 33.125 7.5Z" stroke="currentColor" stroke-width="2" stroke-linecap="round" stroke-linejoin="round"></path>
        <path d="M8.75 12.5L20 21.25L31.25 12.5" stroke="currentColor" stroke-width="2" stroke-linecap="round" stroke-linejoin="round"></path>
    </symbol>

    <symbol fill="none" xmlns="http://www.w3.org/2000/svg" viewBox="0 0 40 40" id="twitter-blog">
        <path fill-rule="evenodd" clip-rule="evenodd" d="M20.0007 36.6666C29.2054 36.6666 36.6673 29.2047 36.6673 19.9999C36.6673 10.7952 29.2054 3.33325 20.0007 3.33325C10.7959 3.33325 3.33398 10.7952 3.33398 19.9999C3.33398 29.2047 10.7959 36.6666 20.0007 36.6666Z" stroke="currentColor" stroke-width="1.5" stroke-linecap="round" stroke-linejoin="round"></path>
        <path d="M29.584 17.8884C29.584 17.4742 29.2482 17.1384 28.834 17.1384C28.4198 17.1384 28.084 17.4742 28.084 17.8884H29.584ZM11.4396 25.446C11.1952 25.1115 10.726 25.0385 10.3915 25.2828C10.0571 25.5272 9.98404 25.9964 10.2284 26.3309L11.4396 25.446ZM10.717 25.1476C10.3079 25.2122 10.0286 25.5963 10.0932 26.0054C10.1578 26.4145 10.5418 26.6939 10.951 26.6292L10.717 25.1476ZM13.834 24.8884L14.0724 25.5995C14.3179 25.5172 14.5036 25.3141 14.5636 25.0621C14.6236 24.8102 14.5493 24.5451 14.3672 24.361L13.834 24.8884ZM12.834 12.8884L13.4946 12.5333C13.372 12.3053 13.1404 12.1566 12.882 12.14C12.6236 12.1234 12.3749 12.2413 12.2242 12.4518L12.834 12.8884ZM18.834 17.8884L18.6567 18.6172C18.8761 18.6705 19.1079 18.6222 19.2877 18.4857C19.4675 18.3491 19.5762 18.1388 19.5836 17.9131L18.834 17.8884ZM27.834 14.8884L27.208 15.3015C27.3468 15.5119 27.582 15.6384 27.834 15.6384V14.8884ZM30.834 14.8884L31.458 15.3045C31.6115 15.0743 31.6258 14.7784 31.4952 14.5345C31.3647 14.2907 31.1106 14.1384 30.834 14.1384V14.8884ZM28.2099 17.4724C27.9802 17.817 28.0733 18.2827 28.418 18.5125C28.7626 18.7422 29.2283 18.6491 29.458 18.3045L28.2099 17.4724ZM28.084 17.8884C28.084 21.2504 27.1241 24.0594 25.3966 26.0172C23.6794 27.9634 21.1433 29.1384 17.834 29.1384V30.6384C21.5247 30.6384 24.4886 29.3135 26.5214 27.0096C28.5439 24.7174 29.584 21.5265 29.584 17.8884H28.084ZM17.834 29.1384C15.9786 29.1384 14.7314 28.6586 13.791 27.9931C12.8277 27.3114 12.1415 26.4068 11.4396 25.446L10.2284 26.3309C10.9231 27.2818 11.737 28.3771 12.9245 29.2175C14.1349 30.0741 15.6894 30.6384 17.834 30.6384V29.1384ZM10.951 26.6292C10.9774 26.6251 10.9978 26.6204 11.0047 26.6188C11.0142 26.6165 11.0219 26.6146 11.0264 26.6134C11.0356 26.6109 11.043 26.6088 11.0469 26.6077C11.0551 26.6053 11.0626 26.603 11.0675 26.6015C11.078 26.5982 11.0903 26.5943 11.1028 26.5903C11.1285 26.582 11.1638 26.5705 11.2063 26.5565C11.2916 26.5284 11.4111 26.4888 11.5527 26.4418C11.836 26.3476 12.2105 26.2226 12.5836 26.0979C12.9568 25.9731 13.329 25.8485 13.6079 25.7552C13.7473 25.7085 13.8634 25.6696 13.9447 25.6423C13.9853 25.6287 14.0172 25.618 14.039 25.6107C14.0499 25.6071 14.0582 25.6043 14.0638 25.6024C14.0666 25.6015 14.0688 25.6007 14.0702 25.6003C14.0709 25.6 14.0714 25.5998 14.0718 25.5997C14.072 25.5997 14.0721 25.5996 14.0722 25.5996C14.0723 25.5996 14.0723 25.5996 14.0723 25.5996C14.0723 25.5995 14.0724 25.5995 13.834 24.8884C13.5956 24.1773 13.5956 24.1773 13.5956 24.1773C13.5956 24.1773 13.5955 24.1773 13.5955 24.1774C13.5954 24.1774 13.5953 24.1774 13.5951 24.1775C13.5947 24.1776 13.5942 24.1778 13.5935 24.178C13.5921 24.1785 13.5899 24.1792 13.5871 24.1802C13.5815 24.182 13.5732 24.1848 13.5623 24.1885C13.5406 24.1958 13.5087 24.2064 13.4681 24.22C13.3869 24.2473 13.2709 24.2861 13.1315 24.3328C12.8528 24.4261 12.4809 24.5506 12.1081 24.6752C11.7352 24.7999 11.3616 24.9246 11.0795 25.0184C10.9383 25.0653 10.8207 25.1043 10.7377 25.1316C10.696 25.1453 10.6642 25.1556 10.643 25.1625C10.632 25.166 10.6259 25.168 10.6233 25.1688C10.6216 25.1693 10.6239 25.1685 10.6283 25.1673C10.6303 25.1667 10.6361 25.165 10.6441 25.1629C10.6481 25.1619 10.6552 25.16 10.6643 25.1579C10.6707 25.1564 10.6908 25.1517 10.717 25.1476L10.951 26.6292ZM14.3672 24.361C11.2894 21.2494 11.0588 16.6557 13.4438 13.3251L12.2242 12.4518C9.42246 16.3645 9.69859 21.7741 13.3008 25.4159L14.3672 24.361ZM12.1734 13.2435C13.4766 15.668 15.926 17.9529 18.6567 18.6172L19.0113 17.1597C16.7954 16.6206 14.6514 14.6855 13.4946 12.5333L12.1734 13.2435ZM19.5836 17.9131C19.6257 16.6331 20.0779 15.569 20.8012 14.8299C21.5206 14.0948 22.5491 13.6384 23.834 13.6384V12.1384C22.1738 12.1384 20.7499 12.7378 19.7292 13.7807C18.7126 14.8195 18.1373 16.2554 18.0844 17.8638L19.5836 17.9131ZM23.834 13.6384C24.7395 13.6384 25.4092 13.8105 25.9271 14.0869C26.4433 14.3625 26.8549 14.7664 27.208 15.3015L28.46 14.4753C27.9981 13.7754 27.4121 13.1793 26.6334 12.7637C25.8562 12.3488 24.9335 12.1384 23.834 12.1384V13.6384ZM27.834 15.6384H30.834V14.1384H27.834V15.6384ZM30.2099 14.4724L28.2099 17.4724L29.458 18.3045L31.458 15.3045L30.2099 14.4724Z" fill="currentColor"></path>
    </symbol>

    <symbol fill="none" xmlns="http://www.w3.org/2000/svg" viewBox="0 0 40 40" id="facebook-blog">
        <path d="M16.1406 18.8568H23.859" stroke="currentColor" stroke-width="1.5" stroke-linecap="round" stroke-linejoin="round"></path>
        <path d="M23.8598 12.425H22.5098C20.4148 12.425 18.7148 14.125 18.7148 16.22V17.57V27.575" stroke="currentColor" stroke-width="1.5" stroke-linecap="round" stroke-linejoin="round"></path>
        <path fill-rule="evenodd" clip-rule="evenodd" d="M20.0007 36.6666C29.2054 36.6666 36.6673 29.2047 36.6673 19.9999C36.6673 10.7952 29.2054 3.33325 20.0007 3.33325C10.7959 3.33325 3.33398 10.7952 3.33398 19.9999C3.33398 29.2047 10.7959 36.6666 20.0007 36.6666Z" stroke="currentColor" stroke-width="1.5" stroke-linecap="round" stroke-linejoin="round"></path>
    </symbol>

    <symbol fill="none" xmlns="http://www.w3.org/2000/svg" viewBox="0 0 42 42" id="share-blog">
        <path d="M19.4414 22.5599C21.2296 24.1211 23.8961 24.1211 25.6843 22.5599L27.2443 21V21C28.9373 19.2708 28.9226 16.501 27.2115 14.7898C25.5003 13.0787 22.7305 13.0641 21.0014 14.757" stroke="currentColor" stroke-width="1.5" stroke-linecap="round" stroke-linejoin="round"></path>
        <path fill-rule="evenodd" clip-rule="evenodd" d="M36.0066 21.0001V21.0001C36.0066 24.9801 34.426 28.7972 31.6117 31.6114C28.7974 34.4257 24.9804 36.0064 21.0004 36.0064V36.0064C17.0204 36.0064 13.2034 34.4257 10.3891 31.6114C7.57482 28.7972 5.99414 24.9801 5.99414 21.0001V21.0001C5.99414 17.0202 7.57482 13.2031 10.3891 10.3889C13.2034 7.57458 17.0204 5.9939 21.0004 5.9939V5.9939C24.9804 5.9939 28.7974 7.57458 31.6117 10.3889C34.426 13.2031 36.0066 17.0202 36.0066 21.0001Z" stroke="currentColor" stroke-width="1.5" stroke-linecap="round" stroke-linejoin="round"></path>
        <path d="M22.5611 19.4402C20.773 17.879 18.1064 17.879 16.3182 19.4402L14.7583 21.0001V21.0001C13.0653 22.7293 13.0799 25.4991 14.7911 27.2102C16.5022 28.9214 19.272 28.936 21.0012 27.243" stroke="currentColor" stroke-width="1.5" stroke-linecap="round" stroke-linejoin="round"></path>
    </symbol>
</svg>